<svg xmlns="http://www.w3.org/2000/svg" version="1.1" xmlns:xlink="http://www.w3.org/1999/xlink" xmlns:svgjs="http://svgjs.dev/svgjs" viewBox="0 0 1422 800"><g shape-rendering="crispEdges"><g><use xlink:href="#SvgjsSymbol1003" x="93.75" y="37.5" fill="hsl(208, 40%, 50%)"></use><use xlink:href="#SvgjsSymbol1004" x="93.75" y="37.5" fill="#7fb2e5"></use><use xlink:href="#SvgjsSymbol1005" x="93.75" y="37.5" fill="#105783"></use></g><g><use xlink:href="#SvgjsSymbol1003" x="131.25" y="93.75" fill="hsl(208, 40%, 50%)"></use><use xlink:href="#SvgjsSymbol1004" x="131.25" y="93.75" fill="#7fb2e5"></use><use xlink:href="#SvgjsSymbol1005" x="131.25" y="93.75" fill="#105783"></use></g><g><use xlink:href="#SvgjsSymbol1003" x="56.25" y="187.5" fill="hsl(208, 40%, 50%)"></use><use xlink:href="#SvgjsSymbol1004" x="56.25" y="187.5" fill="#7fb2e5"></use><use xlink:href="#SvgjsSymbol1005" x="56.25" y="187.5" fill="#105783"></use></g><g><use xlink:href="#SvgjsSymbol1003" x="187.5" y="243.75" fill="hsl(208, 40%, 50%)"></use><use xlink:href="#SvgjsSymbol1004" x="187.5" y="243.75" fill="#7fb2e5"></use><use xlink:href="#SvgjsSymbol1005" x="187.5" y="243.75" fill="#105783"></use></g><g><use xlink:href="#SvgjsSymbol1003" x="300" y="75" fill="hsl(208, 40%, 50%)"></use><use xlink:href="#SvgjsSymbol1004" x="300" y="75" fill="#7fb2e5"></use><use xlink:href="#SvgjsSymbol1005" x="300" y="75" fill="#105783"></use></g><g><use xlink:href="#SvgjsSymbol1003" x="75" y="356.25" fill="hsl(208, 40%, 50%)"></use><use xlink:href="#SvgjsSymbol1004" x="75" y="356.25" fill="#7fb2e5"></use><use xlink:href="#SvgjsSymbol1005" x="75" y="356.25" fill="#105783"></use></g><g><use xlink:href="#SvgjsSymbol1009" x="0" y="62.5" fill="hsl(208, 40%, 50%)"></use><use xlink:href="#SvgjsSymbol1010" x="0" y="62.5" fill="#7fb2e5"></use><use xlink:href="#SvgjsSymbol1011" x="0" y="62.5" fill="#105783"></use></g><g><use xlink:href="#SvgjsSymbol1024" x="250" y="125" fill="hsl(208, 40%, 50%)"></use><use xlink:href="#SvgjsSymbol1025" x="250" y="125" fill="#7fb2e5"></use><use xlink:href="#SvgjsSymbol1026" x="250" y="125" fill="#105783"></use></g><g><use xlink:href="#SvgjsSymbol1024" x="1125" y="475" fill="hsl(233, 42%, 30%)"></use><use xlink:href="#SvgjsSymbol1025" x="1125" y="475" fill="#5b5d9c"></use><use xlink:href="#SvgjsSymbol1026" x="1125" y="475" fill="#000f41"></use></g><g><use xlink:href="#SvgjsSymbol1024" x="1100" y="512.5" fill="hsl(233, 42%, 30%)"></use><use xlink:href="#SvgjsSymbol1025" x="1100" y="512.5" fill="#5b5d9c"></use><use xlink:href="#SvgjsSymbol1026" x="1100" y="512.5" fill="#000f41"></use></g><g><use xlink:href="#SvgjsSymbol1024" x="1150" y="512.5" fill="hsl(233, 42%, 30%)"></use><use xlink:href="#SvgjsSymbol1025" x="1150" y="512.5" fill="#5b5d9c"></use><use xlink:href="#SvgjsSymbol1026" x="1150" y="512.5" fill="#000f41"></use></g><g><use xlink:href="#SvgjsSymbol1024" x="1175" y="550" fill="hsl(233, 42%, 30%)"></use><use xlink:href="#SvgjsSymbol1025" x="1175" y="550" fill="#5b5d9c"></use><use xlink:href="#SvgjsSymbol1026" x="1175" y="550" fill="#000f41"></use></g><g><use xlink:href="#SvgjsSymbol1024" x="1200" y="587.5" fill="hsl(233, 42%, 30%)"></use><use xlink:href="#SvgjsSymbol1025" x="1200" y="587.5" fill="#5b5d9c"></use><use xlink:href="#SvgjsSymbol1026" x="1200" y="587.5" fill="#000f41"></use></g><g><use xlink:href="#SvgjsSymbol1024" x="1125" y="550" fill="hsl(233, 42%, 30%)"></use><use xlink:href="#SvgjsSymbol1025" x="1125" y="550" fill="#5b5d9c"></use><use xlink:href="#SvgjsSymbol1026" x="1125" y="550" fill="#000f41"></use></g><g><use xlink:href="#SvgjsSymbol1024" x="1075" y="550" fill="hsl(233, 42%, 30%)"></use><use xlink:href="#SvgjsSymbol1025" x="1075" y="550" fill="#5b5d9c"></use><use xlink:href="#SvgjsSymbol1026" x="1075" y="550" fill="#000f41"></use></g><g><use xlink:href="#SvgjsSymbol1024" x="1050" y="587.5" fill="hsl(233, 42%, 30%)"></use><use xlink:href="#SvgjsSymbol1025" x="1050" y="587.5" fill="#5b5d9c"></use><use xlink:href="#SvgjsSymbol1026" x="1050" y="587.5" fill="#000f41"></use></g><g><use xlink:href="#SvgjsSymbol1024" x="1025" y="625" fill="hsl(233, 42%, 30%)"></use><use xlink:href="#SvgjsSymbol1025" x="1025" y="625" fill="#5b5d9c"></use><use xlink:href="#SvgjsSymbol1026" x="1025" y="625" fill="#000f41"></use></g><g><use xlink:href="#SvgjsSymbol1024" x="1000" y="662.5" fill="hsl(233, 42%, 30%)"></use><use xlink:href="#SvgjsSymbol1025" x="1000" y="662.5" fill="#5b5d9c"></use><use xlink:href="#SvgjsSymbol1026" x="1000" y="662.5" fill="#000f41"></use></g><g><use xlink:href="#SvgjsSymbol1024" x="1225" y="625" fill="hsl(233, 42%, 30%)"></use><use xlink:href="#SvgjsSymbol1025" x="1225" y="625" fill="#5b5d9c"></use><use xlink:href="#SvgjsSymbol1026" x="1225" y="625" fill="#000f41"></use></g><g><use xlink:href="#SvgjsSymbol1024" x="1250" y="662.5" fill="hsl(233, 42%, 30%)"></use><use xlink:href="#SvgjsSymbol1025" x="1250" y="662.5" fill="#5b5d9c"></use><use xlink:href="#SvgjsSymbol1026" x="1250" y="662.5" fill="#000f41"></use></g><g><use xlink:href="#SvgjsSymbol1024" x="1200" y="662.5" fill="hsl(233, 42%, 30%)"></use><use xlink:href="#SvgjsSymbol1025" x="1200" y="662.5" fill="#5b5d9c"></use><use xlink:href="#SvgjsSymbol1026" x="1200" y="662.5" fill="#000f41"></use></g><g><use xlink:href="#SvgjsSymbol1024" x="1175" y="625" fill="hsl(233, 42%, 30%)"></use><use xlink:href="#SvgjsSymbol1025" x="1175" y="625" fill="#5b5d9c"></use><use xlink:href="#SvgjsSymbol1026" x="1175" y="625" fill="#000f41"></use></g><g><use xlink:href="#SvgjsSymbol1024" x="1150" y="587.5" fill="hsl(233, 42%, 30%)"></use><use xlink:href="#SvgjsSymbol1025" x="1150" y="587.5" fill="#5b5d9c"></use><use xlink:href="#SvgjsSymbol1026" x="1150" y="587.5" fill="#000f41"></use></g><g><use xlink:href="#SvgjsSymbol1024" x="1100" y="587.5" fill="hsl(233, 42%, 30%)"></use><use xlink:href="#SvgjsSymbol1025" x="1100" y="587.5" fill="#5b5d9c"></use><use xlink:href="#SvgjsSymbol1026" x="1100" y="587.5" fill="#000f41"></use></g><g><use xlink:href="#SvgjsSymbol1024" x="1125" y="625" fill="hsl(233, 42%, 30%)"></use><use xlink:href="#SvgjsSymbol1025" x="1125" y="625" fill="#5b5d9c"></use><use xlink:href="#SvgjsSymbol1026" x="1125" y="625" fill="#000f41"></use></g><g><use xlink:href="#SvgjsSymbol1024" x="1075" y="625" fill="hsl(233, 42%, 30%)"></use><use xlink:href="#SvgjsSymbol1025" x="1075" y="625" fill="#5b5d9c"></use><use xlink:href="#SvgjsSymbol1026" x="1075" y="625" fill="#000f41"></use></g><g><use xlink:href="#SvgjsSymbol1024" x="1050" y="662.5" fill="hsl(233, 42%, 30%)"></use><use xlink:href="#SvgjsSymbol1025" x="1050" y="662.5" fill="#5b5d9c"></use><use xlink:href="#SvgjsSymbol1026" x="1050" y="662.5" fill="#000f41"></use></g><g><use xlink:href="#SvgjsSymbol1024" x="1100" y="662.5" fill="hsl(233, 42%, 30%)"></use><use xlink:href="#SvgjsSymbol1025" x="1100" y="662.5" fill="#5b5d9c"></use><use xlink:href="#SvgjsSymbol1026" x="1100" y="662.5" fill="#000f41"></use></g><g><use xlink:href="#SvgjsSymbol1024" x="1150" y="662.5" fill="hsl(233, 42%, 30%)"></use><use xlink:href="#SvgjsSymbol1025" x="1150" y="662.5" fill="#5b5d9c"></use><use xlink:href="#SvgjsSymbol1026" x="1150" y="662.5" fill="#000f41"></use></g><g><use xlink:href="#SvgjsSymbol1030" x="925" y="500" fill="hsl(233, 42%, 30%)"></use><use xlink:href="#SvgjsSymbol1031" x="925" y="500" fill="#5b5d9c"></use><use xlink:href="#SvgjsSymbol1032" x="925" y="500" fill="#000f41"></use></g><g><use xlink:href="#SvgjsSymbol1045" x="1218.75" y="343.75" fill="hsl(233, 42%, 30%)"></use><use xlink:href="#SvgjsSymbol1046" x="1218.75" y="343.75" fill="#5b5d9c"></use><use xlink:href="#SvgjsSymbol1047" x="1218.75" y="343.75" fill="#000f41"></use></g><g><use xlink:href="#SvgjsSymbol1057" x="1150" y="381.25" fill="hsl(233, 42%, 30%)"></use><use xlink:href="#SvgjsSymbol1058" x="1150" y="381.25" fill="#5b5d9c"></use><use xlink:href="#SvgjsSymbol1059" x="1150" y="381.25" fill="#000f41"></use></g><g><use xlink:href="#SvgjsSymbol1057" x="1312.5" y="562.5" fill="hsl(233, 42%, 30%)"></use><use xlink:href="#SvgjsSymbol1058" x="1312.5" y="562.5" fill="#5b5d9c"></use><use xlink:href="#SvgjsSymbol1059" x="1312.5" y="562.5" fill="#000f41"></use></g><g><use xlink:href="#SvgjsSymbol1057" x="900" y="468.75" fill="hsl(233, 42%, 30%)"></use><use xlink:href="#SvgjsSymbol1058" x="900" y="468.75" fill="#5b5d9c"></use><use xlink:href="#SvgjsSymbol1059" x="900" y="468.75" fill="#000f41"></use></g><g><use xlink:href="#SvgjsSymbol1060" x="1050" y="450" fill="hsl(233, 42%, 30%)"></use><use xlink:href="#SvgjsSymbol1061" x="1050" y="450" fill="#5b5d9c"></use><use xlink:href="#SvgjsSymbol1062" x="1050" y="450" fill="#000f41"></use></g><g><use xlink:href="#SvgjsSymbol1060" x="1300" y="50" fill="hsl(233, 42%, 30%)"></use><use xlink:href="#SvgjsSymbol1061" x="1300" y="50" fill="#5b5d9c"></use><use xlink:href="#SvgjsSymbol1062" x="1300" y="50" fill="#000f41"></use></g><g><use xlink:href="#SvgjsSymbol1060" x="1400" y="175" fill="hsl(233, 42%, 30%)"></use><use xlink:href="#SvgjsSymbol1061" x="1400" y="175" fill="#5b5d9c"></use><use xlink:href="#SvgjsSymbol1062" x="1400" y="175" fill="#000f41"></use></g><g><use xlink:href="#SvgjsSymbol1060" x="887.5" y="700" fill="hsl(233, 42%, 30%)"></use><use xlink:href="#SvgjsSymbol1061" x="887.5" y="700" fill="#5b5d9c"></use><use xlink:href="#SvgjsSymbol1062" x="887.5" y="700" fill="#000f41"></use></g><g><use xlink:href="#SvgjsSymbol1069" x="1350" y="656.25" fill="hsl(233, 42%, 30%)"></use><use xlink:href="#SvgjsSymbol1070" x="1350" y="656.25" fill="#5b5d9c"></use><use xlink:href="#SvgjsSymbol1071" x="1350" y="656.25" fill="#000f41"></use></g><g><use xlink:href="#SvgjsSymbol1069" x="1350" y="431.25" fill="hsl(233, 42%, 30%)"></use><use xlink:href="#SvgjsSymbol1070" x="1350" y="431.25" fill="#5b5d9c"></use><use xlink:href="#SvgjsSymbol1071" x="1350" y="431.25" fill="#000f41"></use></g></g><symbol id="SvgjsSymbol1000"><polygon points="0,12.5 25,0 50,12.5 25,25"></polygon></symbol><symbol id="SvgjsSymbol1001"><polygon points="0,12.5 25,25 25,50 0,37.5"></polygon></symbol><symbol id="SvgjsSymbol1002"><polygon points="25,25 50,12.5 50,37.5 25,50"></polygon></symbol><g></g><symbol id="SvgjsSymbol1003"><polygon points="0,18.75 37.5,0 75,18.75 37.5,37.5"></polygon></symbol><symbol id="SvgjsSymbol1004"><polygon points="0,18.75 37.5,37.5 37.5,75 0,56.25"></polygon></symbol><symbol id="SvgjsSymbol1005"><polygon points="37.5,37.5 75,18.75 75,56.25 37.5,75"></polygon></symbol><symbol id="SvgjsSymbol1006"><polygon points="0,25 50,0 100,25 50,50"></polygon></symbol><symbol id="SvgjsSymbol1007"><polygon points="0,25 50,50 50,100 0,75"></polygon></symbol><symbol id="SvgjsSymbol1008"><polygon points="50,50 100,25 100,75 50,100"></polygon></symbol><symbol id="SvgjsSymbol1009"><polygon points="0,31.25 62.5,0 125,31.25 62.5,62.5"></polygon></symbol><symbol id="SvgjsSymbol1010"><polygon points="0,31.25 62.5,62.5 62.5,125 0,93.75"></polygon></symbol><symbol id="SvgjsSymbol1011"><polygon points="62.5,62.5 125,31.25 125,93.75 62.5,125"></polygon></symbol><symbol id="SvgjsSymbol1012"><polygon points="0,25 50,0 100,25 50,50"></polygon></symbol><symbol id="SvgjsSymbol1013"><polygon points="0,25 50,50 50,100 0,75"></polygon></symbol><symbol id="SvgjsSymbol1014"><polygon points="50,50 100,25 100,75 50,100"></polygon></symbol><symbol id="SvgjsSymbol1015"><polygon points="0,18.75 37.5,0 75,18.75 37.5,37.5"></polygon></symbol><symbol id="SvgjsSymbol1016"><polygon points="0,18.75 37.5,37.5 37.5,75 0,56.25"></polygon></symbol><symbol id="SvgjsSymbol1017"><polygon points="37.5,37.5 75,18.75 75,56.25 37.5,75"></polygon></symbol><symbol id="SvgjsSymbol1018"><polygon points="0,12.5 25,0 50,12.5 25,25"></polygon></symbol><symbol id="SvgjsSymbol1019"><polygon points="0,12.5 25,25 25,50 0,37.5"></polygon></symbol><symbol id="SvgjsSymbol1020"><polygon points="25,25 50,12.5 50,37.5 25,50"></polygon></symbol><symbol id="SvgjsSymbol1021"><polygon points="0,6.25 12.5,0 25,6.25 12.5,12.5"></polygon></symbol><symbol id="SvgjsSymbol1022"><polygon points="0,6.25 12.5,12.5 12.5,25 0,18.75"></polygon></symbol><symbol id="SvgjsSymbol1023"><polygon points="12.5,12.5 25,6.25 25,18.75 12.5,25"></polygon></symbol><symbol id="SvgjsSymbol1024"><polygon points="0,12.5 25,0 50,12.5 25,25"></polygon></symbol><symbol id="SvgjsSymbol1025"><polygon points="0,12.5 25,25 25,50 0,37.5"></polygon></symbol><symbol id="SvgjsSymbol1026"><polygon points="25,25 50,12.5 50,37.5 25,50"></polygon></symbol><symbol id="SvgjsSymbol1027"><polygon points="0,18.75 37.5,0 75,18.75 37.5,37.5"></polygon></symbol><symbol id="SvgjsSymbol1028"><polygon points="0,18.75 37.5,37.5 37.5,75 0,56.25"></polygon></symbol><symbol id="SvgjsSymbol1029"><polygon points="37.5,37.5 75,18.75 75,56.25 37.5,75"></polygon></symbol><symbol id="SvgjsSymbol1030"><polygon points="0,25 50,0 100,25 50,50"></polygon></symbol><symbol id="SvgjsSymbol1031"><polygon points="0,25 50,50 50,100 0,75"></polygon></symbol><symbol id="SvgjsSymbol1032"><polygon points="50,50 100,25 100,75 50,100"></polygon></symbol><symbol id="SvgjsSymbol1033"><polygon points="0,31.25 62.5,0 125,31.25 62.5,62.5"></polygon></symbol><symbol id="SvgjsSymbol1034"><polygon points="0,31.25 62.5,62.5 62.5,125 0,93.75"></polygon></symbol><symbol id="SvgjsSymbol1035"><polygon points="62.5,62.5 125,31.25 125,93.75 62.5,125"></polygon></symbol><symbol id="SvgjsSymbol1036"><polygon points="0,37.5 75,0 150,37.5 75,75"></polygon></symbol><symbol id="SvgjsSymbol1037"><polygon points="0,37.5 75,75 75,150 0,112.5"></polygon></symbol><symbol id="SvgjsSymbol1038"><polygon points="75,75 150,37.5 150,112.5 75,150"></polygon></symbol><symbol id="SvgjsSymbol1039"><polygon points="0,43.75 87.5,0 175,43.75 87.5,87.5"></polygon></symbol><symbol id="SvgjsSymbol1040"><polygon points="0,43.75 87.5,87.5 87.5,175 0,131.25"></polygon></symbol><symbol id="SvgjsSymbol1041"><polygon points="87.5,87.5 175,43.75 175,131.25 87.5,175"></polygon></symbol><symbol id="SvgjsSymbol1042"><polygon points="0,37.5 75,0 150,37.5 75,75"></polygon></symbol><symbol id="SvgjsSymbol1043"><polygon points="0,37.5 75,75 75,150 0,112.5"></polygon></symbol><symbol id="SvgjsSymbol1044"><polygon points="75,75 150,37.5 150,112.5 75,150"></polygon></symbol><symbol id="SvgjsSymbol1045"><polygon points="0,31.25 62.5,0 125,31.25 62.5,62.5"></polygon></symbol><symbol id="SvgjsSymbol1046"><polygon points="0,31.25 62.5,62.5 62.5,125 0,93.75"></polygon></symbol><symbol id="SvgjsSymbol1047"><polygon points="62.5,62.5 125,31.25 125,93.75 62.5,125"></polygon></symbol><symbol id="SvgjsSymbol1048"><polygon points="0,25 50,0 100,25 50,50"></polygon></symbol><symbol id="SvgjsSymbol1049"><polygon points="0,25 50,50 50,100 0,75"></polygon></symbol><symbol id="SvgjsSymbol1050"><polygon points="50,50 100,25 100,75 50,100"></polygon></symbol><symbol id="SvgjsSymbol1051"><polygon points="0,18.75 37.5,0 75,18.75 37.5,37.5"></polygon></symbol><symbol id="SvgjsSymbol1052"><polygon points="0,18.75 37.5,37.5 37.5,75 0,56.25"></polygon></symbol><symbol id="SvgjsSymbol1053"><polygon points="37.5,37.5 75,18.75 75,56.25 37.5,75"></polygon></symbol><symbol id="SvgjsSymbol1054"><polygon points="0,12.5 25,0 50,12.5 25,25"></polygon></symbol><symbol id="SvgjsSymbol1055"><polygon points="0,12.5 25,25 25,50 0,37.5"></polygon></symbol><symbol id="SvgjsSymbol1056"><polygon points="25,25 50,12.5 50,37.5 25,50"></polygon></symbol><symbol id="SvgjsSymbol1057"><polygon points="0,6.25 12.5,0 25,6.25 12.5,12.5"></polygon></symbol><symbol id="SvgjsSymbol1058"><polygon points="0,6.25 12.5,12.5 12.5,25 0,18.75"></polygon></symbol><symbol id="SvgjsSymbol1059"><polygon points="12.5,12.5 25,6.25 25,18.75 12.5,25"></polygon></symbol><symbol id="SvgjsSymbol1060"><polygon points="0,12.5 25,0 50,12.5 25,25"></polygon></symbol><symbol id="SvgjsSymbol1061"><polygon points="0,12.5 25,25 25,50 0,37.5"></polygon></symbol><symbol id="SvgjsSymbol1062"><polygon points="25,25 50,12.5 50,37.5 25,50"></polygon></symbol><symbol id="SvgjsSymbol1063"><polygon points="0,6.25 12.5,0 25,6.25 12.5,12.5"></polygon></symbol><symbol id="SvgjsSymbol1064"><polygon points="0,6.25 12.5,12.5 12.5,25 0,18.75"></polygon></symbol><symbol id="SvgjsSymbol1065"><polygon points="12.5,12.5 25,6.25 25,18.75 12.5,25"></polygon></symbol><symbol id="SvgjsSymbol1066"><polygon points="0,12.5 25,0 50,12.5 25,25"></polygon></symbol><symbol id="SvgjsSymbol1067"><polygon points="0,12.5 25,25 25,50 0,37.5"></polygon></symbol><symbol id="SvgjsSymbol1068"><polygon points="25,25 50,12.5 50,37.5 25,50"></polygon></symbol><symbol id="SvgjsSymbol1069"><polygon points="0,18.75 37.5,0 75,18.75 37.5,37.5"></polygon></symbol><symbol id="SvgjsSymbol1070"><polygon points="0,18.75 37.5,37.5 37.5,75 0,56.25"></polygon></symbol><symbol id="SvgjsSymbol1071"><polygon points="37.5,37.5 75,18.75 75,56.25 37.5,75"></polygon></symbol></svg>