<svg xmlns="http://www.w3.org/2000/svg" version="1.1" xmlns:xlink="http://www.w3.org/1999/xlink" xmlns:svgjs="http://svgjs.dev/svgjs" viewBox="0 0 1422 800"><g shape-rendering="crispEdges"><g><use xlink:href="#SvgjsSymbol1000" x="1200" y="425" fill="hsl(143, 71%, 32%)"></use><use xlink:href="#SvgjsSymbol1001" x="1200" y="425" fill="#54bd70"></use><use xlink:href="#SvgjsSymbol1002" x="1200" y="425" fill="#005d1a"></use></g><g><use xlink:href="#SvgjsSymbol1000" x="1175" y="462.5" fill="hsl(143, 71%, 32%)"></use><use xlink:href="#SvgjsSymbol1001" x="1175" y="462.5" fill="#54bd70"></use><use xlink:href="#SvgjsSymbol1002" x="1175" y="462.5" fill="#005d1a"></use></g><g><use xlink:href="#SvgjsSymbol1000" x="1225" y="462.5" fill="hsl(143, 71%, 32%)"></use><use xlink:href="#SvgjsSymbol1001" x="1225" y="462.5" fill="#54bd70"></use><use xlink:href="#SvgjsSymbol1002" x="1225" y="462.5" fill="#005d1a"></use></g><g><use xlink:href="#SvgjsSymbol1000" x="1250" y="500" fill="hsl(143, 71%, 32%)"></use><use xlink:href="#SvgjsSymbol1001" x="1250" y="500" fill="#54bd70"></use><use xlink:href="#SvgjsSymbol1002" x="1250" y="500" fill="#005d1a"></use></g><g><use xlink:href="#SvgjsSymbol1000" x="1200" y="500" fill="hsl(143, 71%, 32%)"></use><use xlink:href="#SvgjsSymbol1001" x="1200" y="500" fill="#54bd70"></use><use xlink:href="#SvgjsSymbol1002" x="1200" y="500" fill="#005d1a"></use></g><g><use xlink:href="#SvgjsSymbol1000" x="1150" y="500" fill="hsl(143, 71%, 32%)"></use><use xlink:href="#SvgjsSymbol1001" x="1150" y="500" fill="#54bd70"></use><use xlink:href="#SvgjsSymbol1002" x="1150" y="500" fill="#005d1a"></use></g><g><use xlink:href="#SvgjsSymbol1000" x="1125" y="537.5" fill="hsl(143, 71%, 32%)"></use><use xlink:href="#SvgjsSymbol1001" x="1125" y="537.5" fill="#54bd70"></use><use xlink:href="#SvgjsSymbol1002" x="1125" y="537.5" fill="#005d1a"></use></g><g><use xlink:href="#SvgjsSymbol1000" x="1175" y="537.5" fill="hsl(143, 71%, 32%)"></use><use xlink:href="#SvgjsSymbol1001" x="1175" y="537.5" fill="#54bd70"></use><use xlink:href="#SvgjsSymbol1002" x="1175" y="537.5" fill="#005d1a"></use></g><g><use xlink:href="#SvgjsSymbol1000" x="1225" y="537.5" fill="hsl(143, 71%, 32%)"></use><use xlink:href="#SvgjsSymbol1001" x="1225" y="537.5" fill="#54bd70"></use><use xlink:href="#SvgjsSymbol1002" x="1225" y="537.5" fill="#005d1a"></use></g><g><use xlink:href="#SvgjsSymbol1000" x="1275" y="537.5" fill="hsl(143, 71%, 32%)"></use><use xlink:href="#SvgjsSymbol1001" x="1275" y="537.5" fill="#54bd70"></use><use xlink:href="#SvgjsSymbol1002" x="1275" y="537.5" fill="#005d1a"></use></g><g><use xlink:href="#SvgjsSymbol1000" x="1250" y="575" fill="hsl(143, 71%, 32%)"></use><use xlink:href="#SvgjsSymbol1001" x="1250" y="575" fill="#54bd70"></use><use xlink:href="#SvgjsSymbol1002" x="1250" y="575" fill="#005d1a"></use></g><g><use xlink:href="#SvgjsSymbol1000" x="1300" y="575" fill="hsl(143, 71%, 32%)"></use><use xlink:href="#SvgjsSymbol1001" x="1300" y="575" fill="#54bd70"></use><use xlink:href="#SvgjsSymbol1002" x="1300" y="575" fill="#005d1a"></use></g><g><use xlink:href="#SvgjsSymbol1000" x="1200" y="575" fill="hsl(143, 71%, 32%)"></use><use xlink:href="#SvgjsSymbol1001" x="1200" y="575" fill="#54bd70"></use><use xlink:href="#SvgjsSymbol1002" x="1200" y="575" fill="#005d1a"></use></g><g><use xlink:href="#SvgjsSymbol1000" x="1150" y="575" fill="hsl(143, 71%, 32%)"></use><use xlink:href="#SvgjsSymbol1001" x="1150" y="575" fill="#54bd70"></use><use xlink:href="#SvgjsSymbol1002" x="1150" y="575" fill="#005d1a"></use></g><g><use xlink:href="#SvgjsSymbol1000" x="1100" y="575" fill="hsl(143, 71%, 32%)"></use><use xlink:href="#SvgjsSymbol1001" x="1100" y="575" fill="#54bd70"></use><use xlink:href="#SvgjsSymbol1002" x="1100" y="575" fill="#005d1a"></use></g><g><use xlink:href="#SvgjsSymbol1000" x="1075" y="612.5" fill="hsl(143, 71%, 32%)"></use><use xlink:href="#SvgjsSymbol1001" x="1075" y="612.5" fill="#54bd70"></use><use xlink:href="#SvgjsSymbol1002" x="1075" y="612.5" fill="#005d1a"></use></g><g><use xlink:href="#SvgjsSymbol1000" x="1125" y="612.5" fill="hsl(143, 71%, 32%)"></use><use xlink:href="#SvgjsSymbol1001" x="1125" y="612.5" fill="#54bd70"></use><use xlink:href="#SvgjsSymbol1002" x="1125" y="612.5" fill="#005d1a"></use></g><g><use xlink:href="#SvgjsSymbol1000" x="1175" y="612.5" fill="hsl(143, 71%, 32%)"></use><use xlink:href="#SvgjsSymbol1001" x="1175" y="612.5" fill="#54bd70"></use><use xlink:href="#SvgjsSymbol1002" x="1175" y="612.5" fill="#005d1a"></use></g><g><use xlink:href="#SvgjsSymbol1000" x="1225" y="612.5" fill="hsl(143, 71%, 32%)"></use><use xlink:href="#SvgjsSymbol1001" x="1225" y="612.5" fill="#54bd70"></use><use xlink:href="#SvgjsSymbol1002" x="1225" y="612.5" fill="#005d1a"></use></g><g><use xlink:href="#SvgjsSymbol1000" x="1275" y="612.5" fill="hsl(143, 71%, 32%)"></use><use xlink:href="#SvgjsSymbol1001" x="1275" y="612.5" fill="#54bd70"></use><use xlink:href="#SvgjsSymbol1002" x="1275" y="612.5" fill="#005d1a"></use></g><g><use xlink:href="#SvgjsSymbol1000" x="1325" y="612.5" fill="hsl(143, 71%, 32%)"></use><use xlink:href="#SvgjsSymbol1001" x="1325" y="612.5" fill="#54bd70"></use><use xlink:href="#SvgjsSymbol1002" x="1325" y="612.5" fill="#005d1a"></use></g><g><use xlink:href="#SvgjsSymbol1006" x="100" y="100" fill="hsl(143, 71%, 32%)"></use><use xlink:href="#SvgjsSymbol1007" x="100" y="100" fill="#54bd70"></use><use xlink:href="#SvgjsSymbol1008" x="100" y="100" fill="#005d1a"></use></g><g><use xlink:href="#SvgjsSymbol1012" x="75" y="225" fill="hsl(143, 71%, 32%)"></use><use xlink:href="#SvgjsSymbol1013" x="75" y="225" fill="#54bd70"></use><use xlink:href="#SvgjsSymbol1014" x="75" y="225" fill="#005d1a"></use></g><g><use xlink:href="#SvgjsSymbol1027" x="212.5" y="200" fill="hsl(143, 71%, 32%)"></use><use xlink:href="#SvgjsSymbol1028" x="212.5" y="200" fill="#54bd70"></use><use xlink:href="#SvgjsSymbol1029" x="212.5" y="200" fill="#005d1a"></use></g><g><use xlink:href="#SvgjsSymbol1027" x="43.75" y="400" fill="hsl(143, 71%, 32%)"></use><use xlink:href="#SvgjsSymbol1028" x="43.75" y="400" fill="#54bd70"></use><use xlink:href="#SvgjsSymbol1029" x="43.75" y="400" fill="#005d1a"></use></g><g><use xlink:href="#SvgjsSymbol1027" x="193.75" y="375" fill="hsl(143, 71%, 32%)"></use><use xlink:href="#SvgjsSymbol1028" x="193.75" y="375" fill="#54bd70"></use><use xlink:href="#SvgjsSymbol1029" x="193.75" y="375" fill="#005d1a"></use></g><g><use xlink:href="#SvgjsSymbol1027" x="1268.75" y="393.75" fill="hsl(143, 71%, 32%)"></use><use xlink:href="#SvgjsSymbol1028" x="1268.75" y="393.75" fill="#54bd70"></use><use xlink:href="#SvgjsSymbol1029" x="1268.75" y="393.75" fill="#005d1a"></use></g><g><use xlink:href="#SvgjsSymbol1027" x="1075" y="668.75" fill="hsl(143, 71%, 32%)"></use><use xlink:href="#SvgjsSymbol1028" x="1075" y="668.75" fill="#54bd70"></use><use xlink:href="#SvgjsSymbol1029" x="1075" y="668.75" fill="#005d1a"></use></g><g><use xlink:href="#SvgjsSymbol1033" x="1331.25" y="412.5" fill="hsl(143, 71%, 32%)"></use><use xlink:href="#SvgjsSymbol1034" x="1331.25" y="412.5" fill="#54bd70"></use><use xlink:href="#SvgjsSymbol1035" x="1331.25" y="412.5" fill="#005d1a"></use></g><g><use xlink:href="#SvgjsSymbol1033" x="18.75" y="168.75" fill="hsl(143, 71%, 32%)"></use><use xlink:href="#SvgjsSymbol1034" x="18.75" y="168.75" fill="#54bd70"></use><use xlink:href="#SvgjsSymbol1035" x="18.75" y="168.75" fill="#005d1a"></use></g><g><use xlink:href="#SvgjsSymbol1033" x="56.25" y="18.75" fill="hsl(143, 71%, 32%)"></use><use xlink:href="#SvgjsSymbol1034" x="56.25" y="18.75" fill="#54bd70"></use><use xlink:href="#SvgjsSymbol1035" x="56.25" y="18.75" fill="#005d1a"></use></g><g><use xlink:href="#SvgjsSymbol1045" x="1312.5" y="700" fill="hsl(143, 71%, 32%)"></use><use xlink:href="#SvgjsSymbol1046" x="1312.5" y="700" fill="#54bd70"></use><use xlink:href="#SvgjsSymbol1047" x="1312.5" y="700" fill="#005d1a"></use></g><g><use xlink:href="#SvgjsSymbol1051" x="1031.25" y="312.5" fill="hsl(143, 71%, 32%)"></use><use xlink:href="#SvgjsSymbol1052" x="1031.25" y="312.5" fill="#54bd70"></use><use xlink:href="#SvgjsSymbol1053" x="1031.25" y="312.5" fill="#005d1a"></use></g><g><use xlink:href="#SvgjsSymbol1054" x="275" y="25" fill="hsl(143, 71%, 32%)"></use><use xlink:href="#SvgjsSymbol1055" x="275" y="25" fill="#54bd70"></use><use xlink:href="#SvgjsSymbol1056" x="275" y="25" fill="#005d1a"></use></g><g><use xlink:href="#SvgjsSymbol1066" x="300" y="162.5" fill="hsl(143, 71%, 32%)"></use><use xlink:href="#SvgjsSymbol1067" x="300" y="162.5" fill="#54bd70"></use><use xlink:href="#SvgjsSymbol1068" x="300" y="162.5" fill="#005d1a"></use></g><g><use xlink:href="#SvgjsSymbol1066" x="175" y="12.5" fill="hsl(143, 71%, 32%)"></use><use xlink:href="#SvgjsSymbol1067" x="175" y="12.5" fill="#54bd70"></use><use xlink:href="#SvgjsSymbol1068" x="175" y="12.5" fill="#005d1a"></use></g><g><use xlink:href="#SvgjsSymbol1066" x="1062.5" y="475" fill="hsl(143, 71%, 32%)"></use><use xlink:href="#SvgjsSymbol1067" x="1062.5" y="475" fill="#54bd70"></use><use xlink:href="#SvgjsSymbol1068" x="1062.5" y="475" fill="#005d1a"></use></g><g><use xlink:href="#SvgjsSymbol1066" x="1162.5" y="687.5" fill="hsl(143, 71%, 32%)"></use><use xlink:href="#SvgjsSymbol1067" x="1162.5" y="687.5" fill="#54bd70"></use><use xlink:href="#SvgjsSymbol1068" x="1162.5" y="687.5" fill="#005d1a"></use></g><g><use xlink:href="#SvgjsSymbol1066" x="987.5" y="275" fill="hsl(143, 71%, 32%)"></use><use xlink:href="#SvgjsSymbol1067" x="987.5" y="275" fill="#54bd70"></use><use xlink:href="#SvgjsSymbol1068" x="987.5" y="275" fill="#005d1a"></use></g><g><use xlink:href="#SvgjsSymbol1066" x="1175" y="300" fill="hsl(143, 71%, 32%)"></use><use xlink:href="#SvgjsSymbol1067" x="1175" y="300" fill="#54bd70"></use><use xlink:href="#SvgjsSymbol1068" x="1175" y="300" fill="#005d1a"></use></g><g><use xlink:href="#SvgjsSymbol1066" x="1387.5" y="575" fill="hsl(143, 71%, 32%)"></use><use xlink:href="#SvgjsSymbol1067" x="1387.5" y="575" fill="#54bd70"></use><use xlink:href="#SvgjsSymbol1068" x="1387.5" y="575" fill="#005d1a"></use></g></g><symbol id="SvgjsSymbol1000"><polygon points="0,12.5 25,0 50,12.5 25,25"></polygon></symbol><symbol id="SvgjsSymbol1001"><polygon points="0,12.5 25,25 25,50 0,37.5"></polygon></symbol><symbol id="SvgjsSymbol1002"><polygon points="25,25 50,12.5 50,37.5 25,50"></polygon></symbol><g></g><symbol id="SvgjsSymbol1003"><polygon points="0,18.75 37.5,0 75,18.75 37.5,37.5"></polygon></symbol><symbol id="SvgjsSymbol1004"><polygon points="0,18.75 37.5,37.5 37.5,75 0,56.25"></polygon></symbol><symbol id="SvgjsSymbol1005"><polygon points="37.5,37.5 75,18.75 75,56.25 37.5,75"></polygon></symbol><symbol id="SvgjsSymbol1006"><polygon points="0,25 50,0 100,25 50,50"></polygon></symbol><symbol id="SvgjsSymbol1007"><polygon points="0,25 50,50 50,100 0,75"></polygon></symbol><symbol id="SvgjsSymbol1008"><polygon points="50,50 100,25 100,75 50,100"></polygon></symbol><symbol id="SvgjsSymbol1009"><polygon points="0,31.25 62.5,0 125,31.25 62.5,62.5"></polygon></symbol><symbol id="SvgjsSymbol1010"><polygon points="0,31.25 62.5,62.5 62.5,125 0,93.75"></polygon></symbol><symbol id="SvgjsSymbol1011"><polygon points="62.5,62.5 125,31.25 125,93.75 62.5,125"></polygon></symbol><symbol id="SvgjsSymbol1012"><polygon points="0,37.5 75,0 150,37.5 75,75"></polygon></symbol><symbol id="SvgjsSymbol1013"><polygon points="0,37.5 75,75 75,150 0,112.5"></polygon></symbol><symbol id="SvgjsSymbol1014"><polygon points="75,75 150,37.5 150,112.5 75,150"></polygon></symbol><symbol id="SvgjsSymbol1015"><polygon points="0,31.25 62.5,0 125,31.25 62.5,62.5"></polygon></symbol><symbol id="SvgjsSymbol1016"><polygon points="0,31.25 62.5,62.5 62.5,125 0,93.75"></polygon></symbol><symbol id="SvgjsSymbol1017"><polygon points="62.5,62.5 125,31.25 125,93.75 62.5,125"></polygon></symbol><symbol id="SvgjsSymbol1018"><polygon points="0,25 50,0 100,25 50,50"></polygon></symbol><symbol id="SvgjsSymbol1019"><polygon points="0,25 50,50 50,100 0,75"></polygon></symbol><symbol id="SvgjsSymbol1020"><polygon points="50,50 100,25 100,75 50,100"></polygon></symbol><symbol id="SvgjsSymbol1021"><polygon points="0,18.75 37.5,0 75,18.75 37.5,37.5"></polygon></symbol><symbol id="SvgjsSymbol1022"><polygon points="0,18.75 37.5,37.5 37.5,75 0,56.25"></polygon></symbol><symbol id="SvgjsSymbol1023"><polygon points="37.5,37.5 75,18.75 75,56.25 37.5,75"></polygon></symbol><symbol id="SvgjsSymbol1024"><polygon points="0,12.5 25,0 50,12.5 25,25"></polygon></symbol><symbol id="SvgjsSymbol1025"><polygon points="0,12.5 25,25 25,50 0,37.5"></polygon></symbol><symbol id="SvgjsSymbol1026"><polygon points="25,25 50,12.5 50,37.5 25,50"></polygon></symbol><symbol id="SvgjsSymbol1027"><polygon points="0,6.25 12.5,0 25,6.25 12.5,12.5"></polygon></symbol><symbol id="SvgjsSymbol1028"><polygon points="0,6.25 12.5,12.5 12.5,25 0,18.75"></polygon></symbol><symbol id="SvgjsSymbol1029"><polygon points="12.5,12.5 25,6.25 25,18.75 12.5,25"></polygon></symbol><symbol id="SvgjsSymbol1030"><polygon points="0,12.5 25,0 50,12.5 25,25"></polygon></symbol><symbol id="SvgjsSymbol1031"><polygon points="0,12.5 25,25 25,50 0,37.5"></polygon></symbol><symbol id="SvgjsSymbol1032"><polygon points="25,25 50,12.5 50,37.5 25,50"></polygon></symbol><symbol id="SvgjsSymbol1033"><polygon points="0,18.75 37.5,0 75,18.75 37.5,37.5"></polygon></symbol><symbol id="SvgjsSymbol1034"><polygon points="0,18.75 37.5,37.5 37.5,75 0,56.25"></polygon></symbol><symbol id="SvgjsSymbol1035"><polygon points="37.5,37.5 75,18.75 75,56.25 37.5,75"></polygon></symbol><symbol id="SvgjsSymbol1036"><polygon points="0,25 50,0 100,25 50,50"></polygon></symbol><symbol id="SvgjsSymbol1037"><polygon points="0,25 50,50 50,100 0,75"></polygon></symbol><symbol id="SvgjsSymbol1038"><polygon points="50,50 100,25 100,75 50,100"></polygon></symbol><symbol id="SvgjsSymbol1039"><polygon points="0,31.25 62.5,0 125,31.25 62.5,62.5"></polygon></symbol><symbol id="SvgjsSymbol1040"><polygon points="0,31.25 62.5,62.5 62.5,125 0,93.75"></polygon></symbol><symbol id="SvgjsSymbol1041"><polygon points="62.5,62.5 125,31.25 125,93.75 62.5,125"></polygon></symbol><symbol id="SvgjsSymbol1042"><polygon points="0,37.5 75,0 150,37.5 75,75"></polygon></symbol><symbol id="SvgjsSymbol1043"><polygon points="0,37.5 75,75 75,150 0,112.5"></polygon></symbol><symbol id="SvgjsSymbol1044"><polygon points="75,75 150,37.5 150,112.5 75,150"></polygon></symbol><symbol id="SvgjsSymbol1045"><polygon points="0,43.75 87.5,0 175,43.75 87.5,87.5"></polygon></symbol><symbol id="SvgjsSymbol1046"><polygon points="0,43.75 87.5,87.5 87.5,175 0,131.25"></polygon></symbol><symbol id="SvgjsSymbol1047"><polygon points="87.5,87.5 175,43.75 175,131.25 87.5,175"></polygon></symbol><symbol id="SvgjsSymbol1048"><polygon points="0,37.5 75,0 150,37.5 75,75"></polygon></symbol><symbol id="SvgjsSymbol1049"><polygon points="0,37.5 75,75 75,150 0,112.5"></polygon></symbol><symbol id="SvgjsSymbol1050"><polygon points="75,75 150,37.5 150,112.5 75,150"></polygon></symbol><symbol id="SvgjsSymbol1051"><polygon points="0,31.25 62.5,0 125,31.25 62.5,62.5"></polygon></symbol><symbol id="SvgjsSymbol1052"><polygon points="0,31.25 62.5,62.5 62.5,125 0,93.75"></polygon></symbol><symbol id="SvgjsSymbol1053"><polygon points="62.5,62.5 125,31.25 125,93.75 62.5,125"></polygon></symbol><symbol id="SvgjsSymbol1054"><polygon points="0,25 50,0 100,25 50,50"></polygon></symbol><symbol id="SvgjsSymbol1055"><polygon points="0,25 50,50 50,100 0,75"></polygon></symbol><symbol id="SvgjsSymbol1056"><polygon points="50,50 100,25 100,75 50,100"></polygon></symbol><symbol id="SvgjsSymbol1057"><polygon points="0,18.75 37.5,0 75,18.75 37.5,37.5"></polygon></symbol><symbol id="SvgjsSymbol1058"><polygon points="0,18.75 37.5,37.5 37.5,75 0,56.25"></polygon></symbol><symbol id="SvgjsSymbol1059"><polygon points="37.5,37.5 75,18.75 75,56.25 37.5,75"></polygon></symbol><symbol id="SvgjsSymbol1060"><polygon points="0,12.5 25,0 50,12.5 25,25"></polygon></symbol><symbol id="SvgjsSymbol1061"><polygon points="0,12.5 25,25 25,50 0,37.5"></polygon></symbol><symbol id="SvgjsSymbol1062"><polygon points="25,25 50,12.5 50,37.5 25,50"></polygon></symbol><symbol id="SvgjsSymbol1063"><polygon points="0,6.25 12.5,0 25,6.25 12.5,12.5"></polygon></symbol><symbol id="SvgjsSymbol1064"><polygon points="0,6.25 12.5,12.5 12.5,25 0,18.75"></polygon></symbol><symbol id="SvgjsSymbol1065"><polygon points="12.5,12.5 25,6.25 25,18.75 12.5,25"></polygon></symbol><symbol id="SvgjsSymbol1066"><polygon points="0,12.5 25,0 50,12.5 25,25"></polygon></symbol><symbol id="SvgjsSymbol1067"><polygon points="0,12.5 25,25 25,50 0,37.5"></polygon></symbol><symbol id="SvgjsSymbol1068"><polygon points="25,25 50,12.5 50,37.5 25,50"></polygon></symbol></svg>